<svg xmlns="http://www.w3.org/2000/svg" width="800" height="600" viewBox="0 0 800 600" fill="none">
  <defs>
    <linearGradient id="bg" x1="0" y1="0" x2="800" y2="600" gradientUnits="userSpaceOnUse">
      <stop stop-color="#001b3d"/>
      <stop offset="0.5" stop-color="#002a56"/>
      <stop offset="1" stop-color="#001428"/>
    </linearGradient>
    <linearGradient id="glow" x1="560" y1="40" x2="800" y2="520" gradientUnits="userSpaceOnUse">
      <stop stop-color="#009dff" stop-opacity="0.42"/>
      <stop offset="1" stop-color="#009dff" stop-opacity="0"/>
    </linearGradient>
    <linearGradient id="pitch" x1="400" y1="340" x2="400" y2="600" gradientUnits="userSpaceOnUse">
      <stop stop-color="#0a5c2e" stop-opacity="0.45"/>
      <stop offset="1" stop-color="#062a1f" stop-opacity="0.2"/>
    </linearGradient>
    <pattern id="stripes" width="28" height="28" patternUnits="userSpaceOnUse" patternTransform="rotate(-24)">
      <rect width="28" height="28" fill="transparent"/>
      <line x1="0" y1="0" x2="0" y2="28" stroke="#009dff" stroke-opacity="0.14" stroke-width="4"/>
    </pattern>
    <pattern id="dots" width="12" height="12" patternUnits="userSpaceOnUse">
      <circle cx="2" cy="2" r="1" fill="#ffffff" fill-opacity="0.1"/>
    </pattern>
  </defs>
  <rect width="800" height="600" fill="url(#bg)"/>
  <rect width="800" height="600" fill="url(#dots)"/>
  <rect x="280" y="0" width="520" height="600" fill="url(#stripes)" opacity="0.55"/>
  <rect width="800" height="600" fill="url(#glow)"/>
  <path d="M0 420 Q200 395 400 410 T800 398 V600 H0Z" fill="url(#pitch)"/>
  <rect x="80" y="300" width="640" height="220" rx="8" fill="none" stroke="#ffffff" stroke-opacity="0.16" stroke-width="3"/>
  <circle cx="400" cy="410" r="56" fill="none" stroke="#ffffff" stroke-opacity="0.14" stroke-width="3"/>
  <line x1="400" y1="300" x2="400" y2="520" stroke="#ffffff" stroke-opacity="0.12" stroke-width="2"/>
  <rect x="360" y="300" width="80" height="110" fill="#ffffff" fill-opacity="0.08"/>
  <circle cx="400" cy="410" r="10" fill="#009dff" fill-opacity="0.35"/>
  <circle cx="620" cy="410" r="44" fill="#001428" fill-opacity="0.9" stroke="#009dff" stroke-opacity="0.45" stroke-width="3"/>
  <path d="M608 410 L632 410 M620 398 L620 422" stroke="#7dd3fc" stroke-opacity="0.5" stroke-width="2.5" stroke-linecap="round"/>
  <circle cx="180" cy="415" r="38" fill="#001428" fill-opacity="0.85" stroke="#009dff" stroke-opacity="0.35" stroke-width="2.5"/>
  <path d="M168 415 L192 415 M180 403 L180 427" stroke="#7dd3fc" stroke-opacity="0.4" stroke-width="2" stroke-linecap="round"/>
  <path d="M260 250 C300 210 360 205 400 230 C440 205 500 210 540 250 C520 290 460 320 400 330 C340 320 280 290 260 250Z" fill="#001428" fill-opacity="0.75" stroke="#009dff" stroke-opacity="0.22" stroke-width="2"/>
  <path d="M330 250 L400 218 L470 250 L430 300 L370 300 Z" fill="#002a56" fill-opacity="0.9" stroke="#7dd3fc" stroke-opacity="0.15" stroke-width="1.5"/>
  <path d="M120 120 L200 80 L280 120 L240 200 L160 200 Z" fill="none" stroke="#009dff" stroke-opacity="0.12" stroke-width="2"/>
  <path d="M520 100 L600 70 L680 110 L640 190 L560 190 Z" fill="none" stroke="#7dd3fc" stroke-opacity="0.1" stroke-width="2"/>
</svg>
